<svg viewBox="0 0 200 200" xmlns="http://www.w3.org/2000/svg">
    <mask id="mask0" mask-type="alpha">
        <path
                    fill="#FFB037"
                    d="M59.4,-60.8C74.3,-44.6,81.6,-22.3,81.7,0.1C81.8,22.5,74.7,45,59.9,59.7C45,
                    74.4,22.5,81.3,0.8,80.5C-20.8,79.6,-41.7,71.1,-57.1,56.4C-72.5,41.7,-82.4,20.8,
                    -83.3,-0.9C-84.2,-22.6,-75.9,-45.2,-60.5,-61.3C-45.2,-77.4,-22.6,-87.2,-0.1,-87C22.3,
                    -86.9,44.6,-76.9,59.4,-60.8Z"
                    transform="translate(100 100)"
                  />
    </mask>
    <g mask="url(#mask0)">
        <path
                    fill="#FFB037"
                    d="M59.4,-60.8C74.3,-44.6,81.6,-22.3,81.7,0.1C81.8,22.5,74.7,45,59.9,59.7C45,
                    74.4,22.5,81.3,0.8,80.5C-20.8,79.6,-41.7,71.1,-57.1,56.4C-72.5,41.7,-82.4,20.8,
                    -83.3,-0.9C-84.2,-22.6,-75.9,-45.2,-60.5,-61.3C-45.2,-77.4,-22.6,-87.2,-0.1,-87C22.3,
                    -86.9,44.6,-76.9,59.4,-60.8Z"
                    transform="translate(100 100)"
                  />
        <image
                    class="home__blob-img"
                    xlink:href="assets/img/profile.png"
                  />
    </g>
</svg>